PathFileType	4	(X/Y/Z)	/Users/itak/Documents/Research/Walk-IL/dataset/trc/00155_00007.trc
DataRate	CameraRate	NumFrames	NumMarkers	Units	OrigDataRate	OrigDataStartFrame	OrigNumFrames
100.000000	100.000000	4	53	mm	100.000000	0	565
Frame#	Time	RPSI			LPSI			L3			STRN			T10			C7			CLAV			RBAK			LBAK			LSHO			LUPA			LAEL			LAOL			LWTS			LWPS			LFRA			LIFD			LHPS			LHTS			RSHO			RUPA			RAEL			RAOL			RWTS			RWPS			RFRA			RIFD			RHTS			RHPS			RBHD			LFHD			RFHD			LBHD			LHIP			RHIP			RASI			LASI			LKNE			LTHI			LANK			LTIP			LTOE			LMT1			LMT5			LHEE			RKNE			RTHI			RANK			RTIP			RTOE			RMT1			RMT5			RHEE			
		X1	Y1	Z1	X2	Y2	Z2	X3	Y3	Z3	X4	Y4	Z4	X5	Y5	Z5	X6	Y6	Z6	X7	Y7	Z7	X8	Y8	Z8	X9	Y9	Z9	X10	Y10	Z10	X11	Y11	Z11	X12	Y12	Z12	X13	Y13	Z13	X14	Y14	Z14	X15	Y15	Z15	X16	Y16	Z16	X17	Y17	Z17	X18	Y18	Z18	X19	Y19	Z19	X20	Y20	Z20	X21	Y21	Z21	X22	Y22	Z22	X23	Y23	Z23	X24	Y24	Z24	X25	Y25	Z25	X26	Y26	Z26	X27	Y27	Z27	X28	Y28	Z28	X29	Y29	Z29	X30	Y30	Z30	X31	Y31	Z31	X32	Y32	Z32	X33	Y33	Z33	X34	Y34	Z34	X35	Y35	Z35	X36	Y36	Z36	X37	Y37	Z37	X38	Y38	Z38	X39	Y39	Z39	X40	Y40	Z40	X41	Y41	Z41	X42	Y42	Z42	X43	Y43	Z43	X44	Y44	Z44	X45	Y45	Z45	X46	Y46	Z46	X47	Y47	Z47	X48	Y48	Z48	X49	Y49	Z49	X50	Y50	Z50	X51	Y51	Z51	X52	Y52	Z52	X53	Y53	Z53	

1	0	-1325.37255859375	1124.897583007812	-526.4219970703125	-1325.71875	1124.754638671875	-660.8491821289062	-1332.247924804688	1155.19580078125	-596.2440185546875	-1126.026123046875	1358.894775390625	-597.2888793945312	-1378.130249023438	1300.716552734375	-600.0527954101562	-1354.303588867188	1594.385986328125	-613.7001342773438	-1168.56298828125	1491.659057617188	-601.326416015625	-1403.569091796875	1408.315307617188	-527.0567626953125	-1358.740112304688	1573.948608398438	-716.2613525390625	-1270.30517578125	1561.630493164062	-782.5548095703125	-1284.436767578125	1428.702392578125	-851.784912109375	-1259.5908203125	1208.670043945312	-869.83251953125	-1326.50439453125	1194.778198242188	-814.9513549804688	-1152.438598632812	955.8536376953125	-817.986572265625	-1231.308227539062	926.859619140625	-848.5086059570312	-1238.596923828125	1093.097412109375	-871.25439453125	-1133.745239257812	763.1151123046875	-793.7883911132812	-1199.771118164062	852.802978515625	-845.3504638671875	-1134.563598632812	867.3732299804688	-825.5726318359375	-1304.665771484375	1578.1376953125	-431.6654663085938	-1321.317993164062	1503.748413085938	-368.7091369628906	-1319.03466796875	1207.38427734375	-352.6948547363281	-1323.07958984375	1207.993041992188	-449.3424377441406	-1166.8193359375	970.42138671875	-366.7127075195312	-1241.32373046875	950.5814819335938	-336.7461853027344	-1293.376708984375	1135.09423828125	-337.6247253417969	-1133.755493164062	777.6421508789062	-384.7817687988281	-1133.586059570312	863.6646118164062	-361.5264282226562	-1200.233032226562	852.0459594726562	-332.8183898925781	-1330.627563476562	1762.784057617188	-534.2164916992188	-1176.0224609375	1846.837890625	-666.66015625	-1175.784301757812	1849.52392578125	-537.0825805664062	-1338.595703125	1762.725463867188	-669.1689453125	-1235.118530273438	1033.9287109375	-766.2097778320312	-1199.895629882812	1030.102294921875	-408.1328125	-1118.523315429688	1102.346923828125	-460.68115234375	-1127.118408203125	1098.816284179688	-727.7465209960938	-1228.951538085938	532.4972534179688	-725.4985961914062	-1243.329467773438	678.5099487304688	-755.7855224609375	-1352.199584960938	34.63717651367188	-700.9410400390625	-1336.011840820312	289.1694030761719	-742.2401733398438	-1119.299194335938	35.38673782348633	-647.229736328125	-1200.37353515625	41.88246154785156	-613.364990234375	-1228.172119140625	31.89517593383789	-730.1966552734375	-1419.244262695312	36.32641220092773	-637.459716796875	-1227.022094726562	536.7794799804688	-441.4828796386719	-1186.293701171875	817.6073608398438	-416.307861328125	-1351.536987304688	30.49312782287598	-451.1992492675781	-1259.694213867188	405.1911315917969	-429.7515869140625	-1122.133666992188	40.54394149780273	-516.1159057617188	-1185.458984375	28.85528182983398	-554.5114135742188	-1217.302612304688	38.05803680419922	-437.8269958496094	-1412.009765625	31.77826499938965	-496.0283508300781	
2	0.01	-1325.241821289062	1124.894897460938	-526.4846801757812	-1325.5791015625	1124.725708007812	-660.9132690429688	-1332.141967773438	1155.181518554688	-596.3187255859375	-1125.9072265625	1358.87744140625	-597.3883056640625	-1378.00146484375	1300.708618164062	-600.1318969726562	-1354.201049804688	1594.405639648438	-613.7587890625	-1168.447265625	1491.650024414062	-601.3861083984375	-1403.461547851562	1408.298706054688	-527.1171875	-1358.610595703125	1573.931396484375	-716.3482055664062	-1270.182006835938	1561.607299804688	-782.6276245117188	-1284.317749023438	1428.672729492188	-851.8409423828125	-1259.4638671875	1208.638061523438	-869.8758544921875	-1326.347534179688	1194.751342773438	-814.9981689453125	-1152.279052734375	955.8754272460938	-818.0204467773438	-1231.10888671875	926.8507080078125	-848.5313110351562	-1238.413818359375	1093.089111328125	-871.2948608398438	-1133.62841796875	763.0299682617188	-793.8102416992188	-1199.537353515625	852.803466796875	-845.36181640625	-1134.421264648438	867.383056640625	-825.5973510742188	-1304.526489257812	1578.124633789062	-431.7386474609375	-1321.156860351562	1503.760131835938	-368.7877807617188	-1318.848999023438	1207.414916992188	-352.5875244140625	-1322.950927734375	1207.977172851562	-449.2446594238281	-1166.695556640625	970.4534912109375	-366.6707763671875	-1241.10986328125	950.5861206054688	-336.618896484375	-1293.211669921875	1135.115478515625	-337.5147399902344	-1133.58984375	777.6447143554688	-384.6553955078125	-1133.39794921875	863.676513671875	-361.4252319335938	-1200.133178710938	852.0859375	-332.6692810058594	-1330.422729492188	1762.844116210938	-534.2489013671875	-1175.772705078125	1846.792236328125	-666.7017211914062	-1175.574584960938	1849.44287109375	-537.10546875	-1338.352172851562	1762.800170898438	-669.2709350585938	-1234.953247070312	1033.913818359375	-766.279052734375	-1199.782348632812	1030.1201171875	-408.1884765625	-1118.412109375	1102.317260742188	-460.7848205566406	-1126.960205078125	1098.797119140625	-727.8194580078125	-1228.89404296875	532.48779296875	-725.5341186523438	-1243.270751953125	678.5060424804688	-755.8094482421875	-1352.19287109375	34.64361953735352	-700.9375	-1335.984252929688	289.1658020019531	-742.2669067382812	-1119.290893554688	35.37472152709961	-647.2282104492188	-1200.373168945312	41.88245391845703	-613.364501953125	-1228.160278320312	31.89238739013672	-730.2003173828125	-1419.24609375	36.34474182128906	-637.4602661132812	-1226.975708007812	536.7721557617188	-441.5243530273438	-1185.402465820312	818.087890625	-416.6640319824219	-1351.549926757812	30.51421928405762	-451.2163696289062	-1259.66259765625	405.1940002441406	-429.7814636230469	-1122.118286132812	40.54146575927734	-516.1139526367188	-1185.457885742188	28.84832000732422	-554.5113525390625	-1217.295043945312	38.06011199951172	-437.8242492675781	-1411.998901367188	31.7848949432373	-496.0352783203125	
3	0.02	-1325.091796875	1124.891479492188	-526.5648803710938	-1325.407592773438	1124.698120117188	-660.9973754882812	-1332.0107421875	1155.16650390625	-596.4129028320312	-1125.757202148438	1358.858032226562	-597.5075073242188	-1377.845336914062	1300.6982421875	-600.2354125976562	-1354.081909179688	1594.422729492188	-613.8328857421875	-1168.303100585938	1491.639892578125	-601.4649047851562	-1403.3310546875	1408.27880859375	-527.1968383789062	-1358.44775390625	1573.911499023438	-716.4609375	-1270.029174804688	1561.578247070312	-782.71875	-1284.16064453125	1428.63623046875	-851.9165649414062	-1259.300048828125	1208.599243164062	-869.9290771484375	-1326.148193359375	1194.715576171875	-815.0572509765625	-1152.071044921875	955.8970947265625	-818.058837890625	-1230.845703125	926.83642578125	-848.5538940429688	-1238.184448242188	1093.078125	-871.342529296875	-1133.546630859375	762.88916015625	-793.8335571289062	-1199.241577148438	852.8026733398438	-845.369873046875	-1134.224731445312	867.3954467773438	-825.6176147460938	-1304.353271484375	1578.110595703125	-431.8392028808594	-1320.955322265625	1503.773315429688	-368.8898620605469	-1318.624267578125	1207.452758789062	-352.4546508789062	-1322.792602539062	1207.958251953125	-449.1223754882812	-1166.534057617188	970.4934692382812	-366.61865234375	-1240.848266601562	950.6014404296875	-336.4554138183594	-1293	1135.144653320312	-337.3781127929688	-1133.384033203125	777.6520385742188	-384.5093994140625	-1133.172607421875	863.6911010742188	-361.3121948242188	-1199.982666015625	852.1411743164062	-332.4686584472656	-1330.16552734375	1762.920166015625	-534.3075561523438	-1175.450927734375	1846.728881835938	-666.7577514648438	-1175.3056640625	1849.34521484375	-537.138916015625	-1338.052856445312	1762.887817382812	-669.3960571289062	-1234.752563476562	1033.895629882812	-766.3653564453125	-1199.64697265625	1030.144409179688	-408.2638549804688	-1118.272216796875	1102.279174804688	-460.9172058105469	-1126.758544921875	1098.774658203125	-727.9095458984375	-1228.824584960938	532.4733276367188	-725.5805053710938	-1243.203369140625	678.5009765625	-755.8479614257812	-1352.1865234375	34.6495361328125	-700.9337158203125	-1335.951049804688	289.15966796875	-742.2989501953125	-1119.280151367188	35.36127090454102	-647.2264404296875	-1200.372680664062	41.88230514526367	-613.3640747070312	-1228.1455078125	31.88928413391113	-730.20654296875	-1419.2470703125	36.3637809753418	-637.4603881835938	-1226.916748046875	536.7620239257812	-441.5788269042969	-1185.095581054688	818.1425170898438	-416.7599792480469	-1351.562255859375	30.53883934020996	-451.2362670898438	-1259.623168945312	405.1957397460938	-429.8203735351562	-1122.104125976562	40.53556060791016	-516.1138916015625	-1185.454711914062	28.83491516113281	-554.507568359375	-1217.288330078125	38.0616569519043	-437.8240661621094	-1411.987548828125	31.79332733154297	-496.0451354980469	
4	0.03	-1324.934204101562	1124.887329101562	-526.6603393554688	-1325.214477539062	1124.675537109375	-661.0987548828125	-1331.8603515625	1155.15283203125	-596.5224609375	-1125.583984375	1358.83837890625	-597.6387329101562	-1377.671508789062	1300.68603515625	-600.3602905273438	-1353.953491210938	1594.433227539062	-613.920654296875	-1168.137451171875	1491.6298828125	-601.5613403320312	-1403.18505859375	1408.257446289062	-527.2962036132812	-1358.258422851562	1573.890747070312	-716.5964965820312	-1269.853149414062	1561.544677734375	-782.824951171875	-1283.96875	1428.595581054688	-852.0117797851562	-1259.10302734375	1208.556274414062	-869.9898071289062	-1325.91455078125	1194.67138671875	-815.1266479492188	-1151.818359375	955.9151000976562	-818.09765625	-1230.522705078125	926.816162109375	-848.5726928710938	-1237.918334960938	1093.064453125	-871.3939819335938	-1133.525146484375	762.6874389648438	-793.8523559570312	-1198.896728515625	852.8002319335938	-845.3712768554688	-1133.972900390625	867.4098510742188	-825.6271362304688	-1304.154907226562	1578.097045898438	-431.9665222167969	-1320.72412109375	1503.786376953125	-369.0126342773438	-1318.37353515625	1207.495727539062	-352.3038330078125	-1322.612548828125	1207.937377929688	-448.9814758300781	-1166.338500976562	970.5397338867188	-366.5572509765625	-1240.553466796875	950.630615234375	-336.2621765136719	-1292.748657226562	1135.182250976562	-337.2215881347656	-1133.148681640625	777.6655883789062	-384.3538208007812	-1132.923095703125	863.7081298828125	-361.1969299316406	-1199.776611328125	852.2124633789062	-332.2253723144531	-1329.8681640625	1763.0087890625	-534.3964233398438	-1175.067626953125	1846.647705078125	-666.8275146484375	-1174.985961914062	1849.237060546875	-537.1840209960938	-1337.717041015625	1762.982421875	-669.5357055664062	-1234.529296875	1033.875122070312	-766.465576171875	-1199.49951171875	1030.174438476562	-408.3572387695312	-1118.109741210938	1102.234741210938	-461.0719909667969	-1126.521484375	1098.750244140625	-728.0116577148438	-1228.747680664062	532.4533081054688	-725.6368408203125	-1243.131591796875	678.4950561523438	-755.9025268554688	-1352.18115234375	34.65461349487305	-700.9306030273438	-1335.914916992188	289.1507568359375	-742.3346557617188	-1119.267456054688	35.34794235229492	-647.2244873046875	-1200.371459960938	41.88227081298828	-613.364013671875	-1228.128540039062	31.88614845275879	-730.2156982421875	-1419.246948242188	36.38150024414062	-637.46044921875	-1226.846557617188	536.7495727539062	-441.6450805664062	-1185.435180664062	817.740234375	-416.5724792480469	-1351.570922851562	30.56484794616699	-451.2567138671875	-1259.578491210938	405.1956481933594	-429.8670349121094	-1122.092651367188	40.52622604370117	-516.1160278320312	-1185.448852539062	28.81280136108398	-554.4981079101562	-1217.283325195312	38.06240844726562	-437.8276977539062	-1411.976440429688	31.80340957641602	-496.0580749511719	
